<svg id="icons" xmlns="http://www.w3.org/2000/svg" viewBox="0 0 48 48"><title>Ai-illustrator-file</title><g id="Ai-illustrator-file"><polygon points="41 46 16.44 46 7 36 7 2 41 2 41 46" fill="#b1bfc9"/><path d="M40,46H16.88a1,1,0,0,1-.73-.31l-8.88-9.4A1,1,0,0,1,7,35.6V3A1,1,0,0,1,8,2H40a1,1,0,0,1,1,1V45A1,1,0,0,1,40,46Z" fill="none" stroke="#252b33" stroke-linecap="round" stroke-linejoin="round" stroke-width="2"/><path d="M17,46,7,36h8a2,2,0,0,1,2,2Z" fill="#fff"/><path d="M17,46,7,36h9a1,1,0,0,1,1,1Z" fill="none" stroke="#252b33" stroke-linecap="round" stroke-linejoin="round" stroke-width="2"/><polyline points="17 26 19.19 19.88 22 12 27 26" fill="none" stroke="#fff" stroke-linecap="round" stroke-linejoin="round" stroke-width="2"/><line x1="19.5" y1="21" x2="24.5" y2="21" fill="none" stroke="#fff" stroke-linecap="round" stroke-linejoin="round" stroke-width="2"/><line x1="31" y1="26" x2="31" y2="16" fill="none" stroke="#fff" stroke-linecap="round" stroke-linejoin="round" stroke-width="2"/><circle cx="31" cy="12.5" r="1.5" fill="#fff"/></g></svg>