<svg id="icons" xmlns="http://www.w3.org/2000/svg" viewBox="0 0 48 48"><title>blueprint-pencil</title><g id="blueprint-pencil"><path d="M1.5,8.5v21a5,5,0,0,0,5,5h39V8.5h-34" fill="#fff"/><path d="M11.5,28.5V7.5a5,5,0,0,0-5-5h0a5,5,0,0,0-5,5v21s1-4,5-4S11.5,28.5,11.5,28.5Z" fill="#fff"/><polyline points="40.5 40.5 7.5 40.5 7.5 44.5 40.5 44.5" fill="#fff"/><polyline points="40.5 44.5 45.5 42.5 40.5 40.5" fill="#fff"/><path d="M1.5,40.5h4a2,2,0,0,1,2,2v0a2,2,0,0,1-2,2h-4a0,0,0,0,1,0,0v-4A0,0,0,0,1,1.5,40.5Z" transform="translate(9 85) rotate(-180)" fill="#fc3768"/><path d="M1.5,8.5v21a5,5,0,0,0,5,5h39V8.5h-34" fill="none" stroke="#252b33" stroke-linecap="round" stroke-linejoin="round" stroke-width="2"/><path d="M1.5,29.5h0a5,5,0,0,1,5-5h0a5,5,0,0,1,5,5h0V7.5a5,5,0,0,0-5-5h0a5,5,0,0,0-5,5v21" fill="#b1bfc9" stroke="#252b33" stroke-linecap="round" stroke-linejoin="round" stroke-width="2"/><path d="M1.5,40.5h4a2,2,0,0,1,2,2v0a2,2,0,0,1-2,2h-4a0,0,0,0,1,0,0v-4A0,0,0,0,1,1.5,40.5Z" transform="translate(9 85) rotate(-180)" fill="none" stroke="#252b33" stroke-linecap="round" stroke-linejoin="round" stroke-width="2"/><polyline points="40.5 40.5 7.5 40.5 7.5 44.5 40.5 44.5" fill="none" stroke="#252b33" stroke-miterlimit="10" stroke-width="2"/><polyline points="40.5 45.5 46.5 42.5 40.5 39.5" fill="#6d7c8c"/><rect x="16.5" y="12.5" width="24" height="18" fill="#6d7c8c" stroke="#252b33" stroke-linecap="round" stroke-linejoin="round" stroke-width="2"/><line x1="40.5" y1="24.5" x2="16.5" y2="24.5" fill="none" stroke="#252b33" stroke-linejoin="round" stroke-width="2"/><line x1="40.5" y1="18.5" x2="16.5" y2="18.5" fill="none" stroke="#252b33" stroke-linejoin="round" stroke-width="2"/><line x1="28.5" y1="12.5" x2="28.5" y2="30.5" fill="none" stroke="#252b33" stroke-linecap="round" stroke-linejoin="round" stroke-width="2"/><line x1="34.5" y1="12.5" x2="34.5" y2="30.5" fill="none" stroke="#252b33" stroke-linecap="round" stroke-linejoin="round" stroke-width="2"/><line x1="22.5" y1="12.5" x2="22.5" y2="30.5" fill="none" stroke="#252b33" stroke-linecap="round" stroke-linejoin="round" stroke-width="2"/></g></svg>