<svg id="icons" xmlns="http://www.w3.org/2000/svg" viewBox="0 0 48 48"><title>drawing-tablet</title><g id="drawing-tablet"><path d="M44.79,3.21a4.12,4.12,0,0,1,0,5.83l-.73.73L38.23,3.94,39,3.21A4.12,4.12,0,0,1,44.79,3.21Z" fill="#fff"/><polygon points="38.23 3.94 28.09 14.09 24.09 18.09 22.92 19.25 21.46 26.54 28.75 25.08 35.92 17.92 39.92 13.92 44.06 9.77 38.23 3.94" fill="#fc3768"/><polygon points="24 18 24.09 18.09 22.92 19.25 21.46 26.54 28.75 25.08 35.92 17.92 36 18 42 18 42 42 14 42 14 18 24 18" fill="#6d7c8c"/><path d="M46,16V44a2,2,0,0,1-2,2H4a2,2,0,0,1-2-2V16a2,2,0,0,1,2-2H28l.09.09-4,4L24,18H14V42H42V18H36l-.08-.08,4-4L40,14h4A2,2,0,0,1,46,16Z" fill="#fff"/><path d="M40,14h4a2,2,0,0,1,2,2V44a2,2,0,0,1-2,2H4a2,2,0,0,1-2-2V16a2,2,0,0,1,2-2H28" fill="none" stroke="#252b33" stroke-linecap="round" stroke-linejoin="round" stroke-width="2"/><polyline points="36 18 42 18 42 42 14 42 14 18 24 18" fill="none" stroke="#252b33" stroke-linecap="round" stroke-linejoin="round" stroke-width="2"/><circle cx="8" cy="20" r="1" fill="none" stroke="#252b33" stroke-linecap="round" stroke-linejoin="round" stroke-width="2"/><circle cx="8" cy="26" r="1" fill="none" stroke="#252b33" stroke-linecap="round" stroke-linejoin="round" stroke-width="2"/><path d="M22.92,19.25l-1.46,7.29,7.29-1.46,16-16a4.12,4.12,0,0,0,0-5.83h0a4.12,4.12,0,0,0-5.83,0Z" fill="none" stroke="#252b33" stroke-linecap="round" stroke-linejoin="round" stroke-width="2"/><line x1="20" y1="28" x2="21.46" y2="26.54" fill="none" stroke="#252b33" stroke-linecap="round" stroke-linejoin="round" stroke-width="2"/><line x1="38.23" y1="3.94" x2="44.06" y2="9.77" fill="none" stroke="#252b33" stroke-linecap="round" stroke-linejoin="round" stroke-width="2"/><path d="M20,28l3.68,3.68a3,3,0,0,0,4.42-.2l.6-.71a3,3,0,0,1,4.6,0L36,34" fill="none" stroke="#252b33" stroke-linecap="round" stroke-linejoin="round" stroke-width="2"/></g></svg>