<svg id="icons" xmlns="http://www.w3.org/2000/svg" viewBox="0 0 48 48"><title>graphic-design</title><g id="graphic-design"><path d="M46,32v4a2,2,0,0,1-2,2H4a2,2,0,0,1-2-2V32Z" fill="#fff"/><path d="M46,4V32H2V4A2,2,0,0,1,4,2H44A2,2,0,0,1,46,4Z" fill="#b1bfc9"/><polygon points="28 38 30 46 18 46 20 38 28 38" fill="#fff"/><line x1="28" y1="38" x2="30" y2="46" fill="none" stroke="#252b33" stroke-linecap="round" stroke-linejoin="round" stroke-width="2"/><line x1="18" y1="46" x2="20" y2="38" fill="none" stroke="#252b33" stroke-linecap="round" stroke-linejoin="round" stroke-width="2"/><line x1="15" y1="46" x2="33" y2="46" fill="none" stroke="#252b33" stroke-linecap="round" stroke-linejoin="round" stroke-width="2"/><line x1="2" y1="32" x2="46" y2="32" fill="none" stroke="#252b33" stroke-linecap="round" stroke-linejoin="round" stroke-width="2"/><rect x="2" y="2" width="44" height="36" rx="2" ry="2" fill="none" stroke="#252b33" stroke-linecap="round" stroke-linejoin="round" stroke-width="2"/><g id="infinity"><path d="M32.81,10.81a6.19,6.19,0,0,1,0,12.38c-7.23,0-10.33-12.38-17.62-12.38a6.19,6.19,0,0,0,0,12.38C22.42,23.19,25.52,10.81,32.81,10.81Z" fill="none" stroke="#252b33" stroke-linecap="round" stroke-linejoin="round" stroke-width="2"/></g><line x1="24" y1="35" x2="24" y2="35" fill="none" stroke="#252b33" stroke-linecap="round" stroke-linejoin="round" stroke-width="2"/></g></svg>