<svg id="icons" xmlns="http://www.w3.org/2000/svg" viewBox="0 0 48 48"><title>group-layers</title><g id="group-layers"><g id="fill"><rect x="2" y="2" width="4.89" height="4.89" fill="#fff"/><rect x="41.11" y="2" width="4.89" height="4.89" fill="#fff"/><rect x="2" y="41.11" width="4.89" height="4.89" fill="#fff"/><rect x="41.11" y="41.11" width="4.89" height="4.89" fill="#fff"/><polyline points="18.42 27.75 10.61 31.5 24 37.93 37.39 31.5 29.58 27.75" fill="#fc3768"/><polyline points="18.42 20.25 10.61 24 24 30.43 37.39 24 29.58 20.25" fill="#6d7c8c"/><polygon points="24 22.93 37.39 16.5 24 10.07 10.61 16.5 24 22.93" fill="#b1bfc9"/></g><g id="outline"><rect x="2" y="2" width="4.89" height="4.89" fill="none" stroke="#252b33" stroke-linecap="round" stroke-linejoin="round" stroke-width="2"/><rect x="41.11" y="2" width="4.89" height="4.89" fill="none" stroke="#252b33" stroke-linecap="round" stroke-linejoin="round" stroke-width="2"/><rect x="2" y="41.11" width="4.89" height="4.89" fill="none" stroke="#252b33" stroke-linecap="round" stroke-linejoin="round" stroke-width="2"/><rect x="41.11" y="41.11" width="4.89" height="4.89" fill="none" stroke="#252b33" stroke-linecap="round" stroke-linejoin="round" stroke-width="2"/><line x1="9.81" y1="4.44" x2="12.65" y2="4.44" fill="none" stroke="#252b33" stroke-linejoin="round" stroke-width="2"/><line x1="14.92" y1="4.44" x2="17.76" y2="4.44" fill="none" stroke="#252b33" stroke-linejoin="round" stroke-width="2"/><line x1="20.03" y1="4.44" x2="22.87" y2="4.44" fill="none" stroke="#252b33" stroke-linejoin="round" stroke-width="2"/><line x1="25.14" y1="4.44" x2="27.97" y2="4.44" fill="none" stroke="#252b33" stroke-linejoin="round" stroke-width="2"/><line x1="30.25" y1="4.44" x2="33.08" y2="4.44" fill="none" stroke="#252b33" stroke-linejoin="round" stroke-width="2"/><line x1="35.36" y1="4.44" x2="38.19" y2="4.44" fill="none" stroke="#252b33" stroke-linejoin="round" stroke-width="2"/><line x1="9.81" y1="43.56" x2="12.65" y2="43.56" fill="none" stroke="#252b33" stroke-linejoin="round" stroke-width="2"/><line x1="14.92" y1="43.56" x2="17.76" y2="43.56" fill="none" stroke="#252b33" stroke-linejoin="round" stroke-width="2"/><line x1="20.03" y1="43.56" x2="22.87" y2="43.56" fill="none" stroke="#252b33" stroke-linejoin="round" stroke-width="2"/><line x1="25.14" y1="43.56" x2="27.97" y2="43.56" fill="none" stroke="#252b33" stroke-linejoin="round" stroke-width="2"/><line x1="30.25" y1="43.56" x2="33.08" y2="43.56" fill="none" stroke="#252b33" stroke-linejoin="round" stroke-width="2"/><line x1="35.36" y1="43.56" x2="38.19" y2="43.56" fill="none" stroke="#252b33" stroke-linejoin="round" stroke-width="2"/><line x1="43.56" y1="9.81" x2="43.56" y2="12.65" fill="none" stroke="#252b33" stroke-linejoin="round" stroke-width="2"/><line x1="43.56" y1="14.92" x2="43.56" y2="17.76" fill="none" stroke="#252b33" stroke-linejoin="round" stroke-width="2"/><line x1="43.56" y1="20.03" x2="43.56" y2="22.87" fill="none" stroke="#252b33" stroke-linejoin="round" stroke-width="2"/><line x1="43.56" y1="25.14" x2="43.56" y2="27.97" fill="none" stroke="#252b33" stroke-linejoin="round" stroke-width="2"/><line x1="43.56" y1="30.25" x2="43.56" y2="33.08" fill="none" stroke="#252b33" stroke-linejoin="round" stroke-width="2"/><line x1="43.56" y1="35.36" x2="43.56" y2="38.2" fill="none" stroke="#252b33" stroke-linejoin="round" stroke-width="2"/><line x1="4.45" y1="9.81" x2="4.45" y2="12.65" fill="none" stroke="#252b33" stroke-linejoin="round" stroke-width="2"/><line x1="4.45" y1="14.92" x2="4.45" y2="17.76" fill="none" stroke="#252b33" stroke-linejoin="round" stroke-width="2"/><line x1="4.45" y1="20.03" x2="4.45" y2="22.87" fill="none" stroke="#252b33" stroke-linejoin="round" stroke-width="2"/><line x1="4.45" y1="25.14" x2="4.45" y2="27.97" fill="none" stroke="#252b33" stroke-linejoin="round" stroke-width="2"/><line x1="4.45" y1="30.25" x2="4.45" y2="33.08" fill="none" stroke="#252b33" stroke-linejoin="round" stroke-width="2"/><line x1="4.45" y1="35.36" x2="4.45" y2="38.2" fill="none" stroke="#252b33" stroke-linejoin="round" stroke-width="2"/><polyline points="18.42 27.75 10.61 31.5 24 37.93 37.39 31.5 29.58 27.75" fill="none" stroke="#252b33" stroke-linecap="round" stroke-linejoin="round" stroke-width="2"/><polyline points="18.42 20.25 10.61 24 24 30.43 37.39 24 29.58 20.25" fill="none" stroke="#252b33" stroke-linecap="round" stroke-linejoin="round" stroke-width="2"/><polygon points="24 22.93 37.39 16.5 24 10.07 10.61 16.5 24 22.93" fill="none" stroke="#252b33" stroke-linecap="round" stroke-linejoin="round" stroke-width="2"/></g></g></svg>