<svg id="icons" xmlns="http://www.w3.org/2000/svg" viewBox="0 0 48 48"><title>pencil-ruler</title><g id="pencil-ruler"><g id="fill"><polyline points="31.4 5.32 2 34.72 13.29 46 42.68 16.61" fill="#b1bfc9"/><path d="M2,11.93,11.93,2,46,36.07,36.07,46Zm9.61,0a2.18,2.18,0,1,0-2.17,2.17A2.17,2.17,0,0,0,11.61,11.88Z" fill="#fff"/><polygon points="40.13 3.33 31.4 5.32 42.68 16.61 44.67 7.87 40.13 3.33" fill="#fff"/><path d="M40.13,3.33a6,6,0,0,0,4.54,4.54L46,2Z" fill="#fc3768"/></g><g id="outline"><path d="M2,11.93,11.93,2,46,36.07,36.07,46Zm9.61,0a2.18,2.18,0,1,0-2.17,2.17A2.17,2.17,0,0,0,11.61,11.88Z" fill="none" stroke="#252b33" stroke-linecap="round" stroke-linejoin="round" stroke-width="2"/><path d="M22.19,12.13a.81.81,0,0,0-1.15,0l-1.29,1.3a.81.81,0,0,0,0,1.15.81.81,0,0,0,1.15,0l1.29-1.3A.81.81,0,0,0,22.19,12.13Z" fill="#252b33"/><path d="M15.43,5.36a.82.82,0,0,0-1.16,0L13,6.66a.81.81,0,0,0,0,1.15.82.82,0,0,0,.58.24.8.8,0,0,0,.57-.24l1.3-1.3A.81.81,0,0,0,15.43,5.36Z" fill="#252b33"/><path d="M29,18.9a.81.81,0,0,0-1.15,0l-1.29,1.29a.82.82,0,0,0,0,1.16.78.78,0,0,0,.57.23.81.81,0,0,0,.58-.23L29,20.05A.81.81,0,0,0,29,18.9Z" fill="#252b33"/><path d="M35.73,25.67a.81.81,0,0,0-1.15,0L33.29,27a.82.82,0,0,0,0,1.16.83.83,0,0,0,1.15,0l1.29-1.3A.81.81,0,0,0,35.73,25.67Z" fill="#252b33"/><path d="M24.43,15.52l-2.07,2.06a.81.81,0,0,0,0,1.15.82.82,0,0,0,.58.24.8.8,0,0,0,.57-.24l2.07-2.06a.81.81,0,1,0-1.15-1.15Z" fill="#252b33"/><path d="M17.66,8.75l-2.07,2.06a.81.81,0,0,0,0,1.15.82.82,0,0,0,1.16,0L18.81,9.9a.81.81,0,1,0-1.15-1.15Z" fill="#252b33"/><path d="M31.19,22.29l-2.06,2.06a.81.81,0,0,0,0,1.15.82.82,0,0,0,.58.24.8.8,0,0,0,.57-.24l2.07-2.06a.81.81,0,0,0,0-1.15A.82.82,0,0,0,31.19,22.29Z" fill="#252b33"/><path d="M38,29.06,35.9,31.12a.82.82,0,0,0,.57,1.39.82.82,0,0,0,.58-.24l2.07-2.06a.81.81,0,0,0,0-1.15A.82.82,0,0,0,38,29.06Z" fill="#252b33"/><path d="M42.5,32.44a.81.81,0,0,0-1.15,0l-1.3,1.29a.82.82,0,0,0,.58,1.39.82.82,0,0,0,.58-.24l1.29-1.29A.81.81,0,0,0,42.5,32.44Z" fill="#252b33"/><line x1="34.61" y1="24.68" x2="42.68" y2="16.6" fill="none" stroke="#252b33" stroke-linecap="round" stroke-linejoin="round" stroke-width="2"/><polyline points="13.39 23.32 2 34.72 13.29 46 24.68 34.61" fill="none" stroke="#252b33" stroke-linecap="round" stroke-linejoin="round" stroke-width="2"/><line x1="31.4" y1="5.32" x2="23.36" y2="13.36" fill="none" stroke="#252b33" stroke-linecap="round" stroke-linejoin="round" stroke-width="2"/><polyline points="40.13 3.33 31.4 5.32 42.68 16.61 44.67 7.87" fill="none" stroke="#252b33" stroke-linecap="round" stroke-linejoin="round" stroke-width="2"/><path d="M40.13,3.33a6,6,0,0,0,4.54,4.54L46,2Z" fill="none" stroke="#252b33" stroke-linecap="round" stroke-linejoin="round" stroke-width="2"/></g></g></svg>