<svg id="icons" xmlns="http://www.w3.org/2000/svg" viewBox="0 0 48 48"><title>registration-mark-file</title><g id="registration-mark-file"><path d="M40,46H16L6,36V4A2,2,0,0,1,8,2H40a2,2,0,0,1,2,2V44A2,2,0,0,1,40,46Z" fill="#fff"/><path d="M41,46H16.41a1,1,0,0,1-.7-.29L6.29,36.29a1,1,0,0,1-.29-.7V3A1,1,0,0,1,7,2H41a1,1,0,0,1,1,1V45A1,1,0,0,1,41,46Z" fill="none" stroke="#252b33" stroke-linecap="round" stroke-linejoin="round" stroke-width="2"/><path d="M16,46,6,36h8a2,2,0,0,1,2,2Z" fill="#fc3768"/><path d="M16,46,6,36h9a1,1,0,0,1,1,1Z" fill="none" stroke="#252b33" stroke-linecap="round" stroke-linejoin="round" stroke-width="2"/><circle cx="24" cy="20" r="9" fill="#fff"/><circle cx="24" cy="20" r="9" fill="none" stroke="#252b33" stroke-linecap="round" stroke-linejoin="round" stroke-width="2"/><line x1="24" y1="7" x2="24" y2="15" fill="none" stroke="#252b33" stroke-linejoin="round" stroke-width="2"/><line x1="11" y1="20" x2="19" y2="20" fill="none" stroke="#252b33" stroke-linejoin="round" stroke-width="2"/><line x1="29" y1="20" x2="37" y2="20" fill="none" stroke="#252b33" stroke-linejoin="round" stroke-width="2"/><line x1="24" y1="33" x2="24" y2="25" fill="none" stroke="#252b33" stroke-linejoin="round" stroke-width="2"/><circle cx="24" cy="20" r="5" fill="#6d7c8c"/><polyline points="24 15 24 20 29 20" fill="none" stroke="#fff" stroke-linejoin="round" stroke-width="2"/><polyline points="19 20 24 20 24 25" fill="none" stroke="#fff" stroke-linejoin="round" stroke-width="2"/></g></svg>