<svg id="icons" xmlns="http://www.w3.org/2000/svg" viewBox="0 0 48 48"><title>visual-design</title><g id="visual-design"><g id="fill"><path d="M44.9,2H3.1A1.12,1.12,0,0,0,2,3.13V46H46V3.13A1.12,1.12,0,0,0,44.9,2Z" fill="#fff"/><rect x="6.3" y="9.88" width="35.39" height="31.8" fill="#fc3768"/><path d="M14.13,4.31a1.24,1.24,0,1,1-1.2,1.24A1.22,1.22,0,0,1,14.13,4.31Z" fill="#252b33"/><path d="M10.25,4.3a1.25,1.25,0,1,1-1.2,1.25A1.23,1.23,0,0,1,10.25,4.3Z" fill="#252b33"/><path d="M6.37,4.31A1.24,1.24,0,1,1,5.16,5.55,1.22,1.22,0,0,1,6.37,4.31Z" fill="#252b33"/><path d="M36,25.49a13.89,13.89,0,0,1-24.06,0v-.23a13.89,13.89,0,0,1,24.06,0Z" fill="#fff"/><path d="M18.71,25.37A5.29,5.29,0,1,0,24,20.08,5.29,5.29,0,0,0,18.71,25.37ZM21,23.72a1.55,1.55,0,1,1,1.55,1.55A1.55,1.55,0,0,1,21,23.72Z" fill="#252b33"/></g><g id="outline"><path d="M44.9,2H3.1A1.12,1.12,0,0,0,2,3.13V46H46V3.13A1.12,1.12,0,0,0,44.9,2Z" fill="none" stroke="#252b33" stroke-linecap="round" stroke-linejoin="round" stroke-width="2"/><rect x="6.3" y="9.88" width="35.39" height="31.8" fill="none" stroke="#252b33" stroke-linecap="round" stroke-linejoin="round" stroke-width="2"/><path d="M36,25.49a13.89,13.89,0,0,1-24.06,0v-.23a13.89,13.89,0,0,1,24.06,0Z" fill="none" stroke="#252b33" stroke-linecap="round" stroke-linejoin="round" stroke-width="2"/></g></g></svg>